<svg viewBox="0 0 9 35" xmlns:xlink="http://www.w3.org/1999/xlink" xmlns="http://www.w3.org/2000/svg"><path fill-rule="evenodd" d="M4.113.24C6.351.219 8.152 2.037 8.15 4.318 8.148 6.58 6.387 8.34 4.086 8.379 1.864 8.417.038 6.612.002 4.342-.034 2.038 1.744.265 4.113.241M.002 17.356c-.02-2.277 1.795-4.074 4.132-4.092 2.2-.017 4.042 1.866 4.016 4.107-.026 2.278-1.757 3.987-4.083 4.031-2.208.043-4.046-1.787-4.065-4.046m0 13.018c-.006-2.277 1.834-4.087 4.152-4.087 2.205 0 4.034 1.895 3.995 4.14-.04 2.307-1.748 3.973-4.1 4C1.794 34.45.006 32.66 0 30.373"></path></svg>