<svg viewBox="0 0 5.98 8.16" xmlns:xlink="http://www.w3.org/1999/xlink" xmlns="http://www.w3.org/2000/svg"><path style='fill:#fff;' d="M3.81 1.09H2.17V.54h1.64zm1.74 0h-1.2V.54c0-.41-.13-.54-.54-.54H2.17a.48.48 0 0 0-.54.54v.54H.44A.42.42 0 0 0 0 1.5a.42.42 0 0 0 .44.41h5.11A.42.42 0 0 0 6 1.5a.42.42 0 0 0-.45-.41zM1.63 2.72A.27.27 0 0 1 1.9 3l.27 4.08a.27.27 0 0 1-.54 0L1.36 3a.27.27 0 0 1 .27-.28zM2.72 3a.27.27 0 1 1 .54 0v4.07a.27.27 0 1 1-.54 0zm1.36 0a.27.27 0 0 1 .54 0l-.27 4.07a.27.27 0 1 1-.54 0zM.83 7.6a.74.74 0 0 0 .75.55H4.4a.74.74 0 0 0 .75-.55l.56-5.43H.27z"></path></svg>