<svg viewBox="0 0 6.98 6.98" xmlns:xlink="http://www.w3.org/1999/xlink" xmlns="http://www.w3.org/2000/svg"><path fill="#fff" d="M3.49 4.81a1.32 1.32 0 1 1 1.32-1.32 1.32 1.32 0 0 1-1.32 1.32M6.67 4l-.26-.11a3 3 0 0 0 0-.8L6.67 3a.5.5 0 0 0 .27-.66l-.19-.45a.5.5 0 0 0-.65-.29l-.26.11a3 3 0 0 0-.57-.57l.11-.26a.5.5 0 0 0-.27-.65L4.65 0A.5.5 0 0 0 4 .31l-.11.26a3 3 0 0 0-.8 0L3 .31A.5.5 0 0 0 2.32 0l-.45.22a.5.5 0 0 0-.27.66l.11.26a3 3 0 0 0-.57.57L.88 1.6a.5.5 0 0 0-.66.27L0 2.32A.5.5 0 0 0 .31 3l.26.11a3 3 0 0 0 0 .8L.31 4a.5.5 0 0 0-.31.65l.19.45a.5.5 0 0 0 .66.27l.26-.11a3 3 0 0 0 .57.57l-.11.26a.5.5 0 0 0 .27.66l.45.19A.5.5 0 0 0 3 6.67l.11-.26a3 3 0 0 0 .8 0l.09.26a.5.5 0 0 0 .66.27l.45-.19a.5.5 0 0 0 .27-.66l-.11-.26a3 3 0 0 0 .57-.57l.26.11a.5.5 0 0 0 .66-.27l.19-.45A.5.5 0 0 0 6.67 4"></path></svg>